# xmcd
#
# Track frame offsets:
#	182
#	17520
#	36177
#	54752
#	71075
#	95570
#	115730
#	140110
#	155257
#	169945
#	190322
#	206077
#	223525
#	236677
#	261180
#
# Disc length: 3734 seconds
#
# Revision: 3
# Processed by: cddbd v1.5.2PL0 Copyright (c) Steve Scherf et al.
# Submitted via: audiograbber 1.83.01
#
DISCID=d70e940f
DTITLE=Various Artist - MM6040
DYEAR=1900
DGENRE=Karaoke
TTITLE0=Carey, Mariah - Without You
TTITLE1=Stevie B - Because I Love You
TTITLE2=Parton, Dolly and Ingram - Day I Fall In Love, The
TTITLE3=Raitt, Bonnie - Love Sneakin' Up On You
TTITLE4=Meat Loaf - Rock and Roll Dreams Come True
TTITLE5=Salt 'N Pepa and En Vogue - Whatta Man
TTITLE6=Kadison, Joshua - Jessie
TTITLE7=Cliff, Jimmy - I Can See Clearly Now
TTITLE8=Ace Of Base - Sign, The
TTITLE9=Astley, Rick - Ones You Love, The
TTITLE10=Joel, Billy - Lullabye (Goodnight My Angel)
TTITLE11=Shakespear's Sister - Stay
TTITLE12=Connick, Harry Jr. - Wink And A Smile, A
TTITLE13=Bolton, Michael - Please Forgive Me
TTITLE14=Carey, Mariah - Never Forget You
EXTD=
EXTT0=
EXTT1=
EXTT2=
EXTT3=
EXTT4=
EXTT5=
EXTT6=
EXTT7=
EXTT8=
EXTT9=
EXTT10=
EXTT11=
EXTT12=
EXTT13=
EXTT14=
PLAYORDER=
